#!OML:ASF F:\VICON\USERDATA\INSTALL\rory3\rory3.ASF
:FULLY-SPECIFIED
:DEGREES
325
root 0.48394 17.5828 32.8543 -1.07961 -3.93285 -6.72445
lowerback 8.66369 2.06957 6.09751
upperback 0.556246 3.43175 1.98515
thorax -4.04535 1.605 -1.75891
lowerneck -16.0323 -3.29291 -1.43069
upperneck 20.4816 -4.45441 1.0794
head 9.13852 -2.07481 0.0494613
rclavicle 6.0179e-015 1.35422e-014
rhumerus -20.6603 -9.87252 -83.9048
rradius 32.6309
rwrist 0.241218
rhand -18.7086 23.6132
rfingers 7.12502
rthumb 7.58645 -6.23069
lclavicle 6.0179e-015 1.35422e-014
lhumerus -36.3801 10.1063 81.3322
lradius 21.4836
lwrist 5.63316
lhand -32.3304 14.9717
lfingers 7.12502
lthumb -5.5677 44.8785
rfemur 8.91492 8.36501 33.9337
rtibia 27.8173
rfoot -21.0517 -8.21592
rtoes -5.01546
lfemur -24.1403 -4.8852 -9.91188
ltibia 12.0459
lfoot -5.7593 6.59654
ltoes -6.72809
326
root 0.508874 17.5685 33.043 -1.11116 -3.91471 -7.01784
lowerback 8.75453 2.02325 6.40792
upperback 0.545214 3.41273 2.08112
thorax -4.0976 1.58863 -1.83373
lowerneck -16.0942 -3.31289 -1.56563
upperneck 20.5168 -4.46735 1.16649
head 9.16788 -2.081 0.0982918
rclavicle 1.31012e-014 -1.47598e-014
rhumerus -20.8834 -10.1172 -83.7559
rradius 32.5812
rwrist 0.515121
rhand -18.3697 24.3789
rfingers 7.12502
rthumb 7.91352 -5.45295
lclavicle 1.31012e-014 -1.47598e-014
lhumerus -36.4212 10.2889 81.2519
lradius 21.1403
lwrist 5.53927
lhand -32.5914 14.393
lfingers 7.12502
lthumb -5.8197 44.293
rfemur 9.36413 8.34749 34.195
rtibia 28.2433
rfoot -20.5895 -7.82688
rtoes -4.07518
lfemur -24.4553 -4.13938 -10.1178
ltibia 13.6855
lfoot -6.09691 6.47784
ltoes -7.23113
327
root 0.535727 17.5554 33.2414 -1.20028 -3.82595 -7.11722
lowerback 8.78644 1.97354 6.50838
upperback 0.517819 3.36276 2.12077
thorax -4.14488 1.56032 -1.8448
lowerneck -15.928 -3.35576 -1.53044
upperneck 20.4288 -4.53693 1.16713
head 9.10705 -2.11278 0.087609
rclavicle -2.94108e-014 3.47873e-016
rhumerus -21.0885 -10.5383 -83.6173
rradius 32.487
rwrist 0.823282
rhand -18.1164 24.8371
rfingers 7.12502
rthumb 8.15795 -4.98546
lclavicle -2.94108e-014 3.47873e-016
lhumerus -36.5852 10.7229 80.9975
lradius 20.9113
lwrist 5.04649
lhand -32.3571 20.6611
lfingers 7.12502
lthumb -5.59353 50.5673
rfemur 9.88092 8.05295 34.1752
rtibia 28.6507
rfoot -19.9737 -7.3291
rtoes -3.83252
lfemur -24.6499 -3.8072 -10.4133
ltibia 15.2598
lfoot -6.02391 6.1387
ltoes -8.22444
328
root 0.558725 17.5603 33.4565 -1.47619 -3.87356 -6.87679
lowerback 8.69073 2.0212 6.26708
upperback 0.640571 3.38516 2.07309
thorax -3.97147 1.5833 -1.75567
lowerneck -15.714 -3.38562 -1.38623
upperneck 20.2083 -4.57547 1.0032
head 8.98432 -2.14107 0.00931198
rclavicle 2.47052e-014 -8.00108e-015
rhumerus -21.2823 -10.7422 -83.4825
rradius 32.5715
rwrist 0.821922
rhand -18.015 24.7681
rfingers 7.12502
rthumb 8.25586 -5.05056
lclavicle 2.47052e-014 -8.00108e-015
lhumerus -36.6493 10.9858 80.8916
lradius 20.5977
lwrist 4.85331
lhand -32.0022 32.3857
lfingers 7.12502
lthumb -5.25088 62.3006
rfemur 10.6436 7.99846 33.8914
rtibia 29.0765
rfoot -19.4418 -7.01324
rtoes -4.69943
lfemur -24.526 -3.63062 -10.9576
ltibia 16.5994
lfoot -3.62977 4.75986
ltoes -12.5738
329
root 0.581412 17.5833 33.6694 -1.7309 -4.05447 -6.51166
lowerback 8.68057 2.11161 5.85535
upperback 0.735182 3.45736 2.021
thorax -3.88196 1.63015 -1.58648
lowerneck -15.7258 -3.40028 -1.32597
upperneck 20.2534 -4.57284 0.832874
head 8.99594 -2.15343 -0.0586706
rclavicle -4.45153e-014 -1.51573e-014
rhumerus -21.7912 -11.0273 -83.3216
rradius 32.9616
rwrist 0.961315
rhand -17.9965 24.5856
rfingers 7.12502
rthumb 8.2737 -5.23242
lclavicle -4.45153e-014 -1.51573e-014
lhumerus -36.5916 10.8942 81.0558
lradius 19.9969
lwrist 5.57311
lhand -32.6537 39.3313
lfingers 7.12502
lthumb -5.8799 69.2297
rfemur 11.2765 8.05308 33.4527
rtibia 29.6323
rfoot -18.7157 -6.74332
rtoes -5.74654
lfemur -24.1969 -3.57746 -11.4707
ltibia 17.4752
lfoot -2.23205 3.22122
ltoes -8.80316
330
root 0.611112 17.611 33.8876 -1.87305 -4.14291 -5.83719
lowerback 8.50044 2.17375 5.27624
upperback 0.748562 3.46231 1.81074
thorax -3.78723 1.64393 -1.47477
lowerneck -15.6357 -3.42457 -1.2806
upperneck 20.4228 -4.62543 0.842744
head 9.03749 -2.17289 -0.0693635
rclavicle 1.45144e-014 1.60519e-014
rhumerus -22.2458 -11.2843 -83.2198
rradius 33.0087
rwrist 1.03655
rhand -18.2692 24.4542
rfingers 7.12502
rthumb 8.0105 -5.37399
lclavicle 1.45144e-014 1.60519e-014
lhumerus -36.5271 11.2026 80.805
lradius 19.2595
lwrist 5.15732
lhand -32.5282 43.5162
lfingers 7.12502
lthumb -5.75875 73.418
rfemur 11.5986 7.98072 32.5658
rtibia 30.4806
rfoot -17.8048 -6.34319
rtoes -6.66542
lfemur -23.7614 -3.92019 -12.2216
ltibia 18.0663
lfoot -2.06049 2.5228
ltoes -3.45334
331
root 0.648521 17.6427 34.1032 -1.96651 -3.93847 -4.78884
lowerback 8.37948 2.13642 4.44216
upperback 0.621658 3.31772 1.44142
thorax -3.88496 1.57981 -1.37569
lowerneck -15.2594 -3.47968 -1.38192
upperneck 20.4399 -4.74735 1.12588
head 8.98618 -2.20978 0.0350975
rclavicle 4.35556e-014 1.58282e-014
rhumerus -22.5907 -11.5235 -83.1713
rradius 32.623
rwrist 1.01074
rhand -18.5094 24.2198
rfingers 7.12502
rthumb 7.77872 -5.61712
lclavicle 4.35556e-014 1.58282e-014
lhumerus -36.6902 11.603 80.312
lradius 18.7548
lwrist 4.18376
lhand -33.5404 21.694
lfingers 7.12502
lthumb -6.7359 51.5669
rfemur 11.5725 7.52458 31.1
rtibia 31.7051
rfoot -16.866 -5.62002
rtoes -7.56653
lfemur -23.3343 -4.22549 -13.5612
ltibia 18.5724
lfoot -2.2415 1.71877
ltoes -2.4059
